<?xml version="1.0" encoding="UTF-8" standalone="no"?>
<!-- Created with Inkscape (http://www.inkscape.org/) -->

<svg
   xmlns:dc="http://purl.org/dc/elements/1.1/"
   xmlns:cc="http://creativecommons.org/ns#"
   xmlns:rdf="http://www.w3.org/1999/02/22-rdf-syntax-ns#"
   xmlns:svg="http://www.w3.org/2000/svg"
   xmlns="http://www.w3.org/2000/svg"
   xmlns:sodipodi="http://sodipodi.sourceforge.net/DTD/sodipodi-0.dtd"
   xmlns:inkscape="http://www.inkscape.org/namespaces/inkscape"
   width="70.387932mm"
   height="81.152023mm"
   viewBox="0 0 70.387932 81.152023"
   version="1.1"
   id="svg4494"
   inkscape:version="0.92.1 r15371"
   sodipodi:docname="cup.svg">
  <defs
     id="defs4488" />
  <sodipodi:namedview
     id="base"
     pagecolor="#ffffff"
     bordercolor="#666666"
     borderopacity="1.0"
     inkscape:pageopacity="0.0"
     inkscape:pageshadow="2"
     inkscape:zoom="1.979899"
     inkscape:cx="21.891326"
     inkscape:cy="158.06413"
     inkscape:document-units="mm"
     inkscape:current-layer="layer1"
     showgrid="false"
     inkscape:window-width="1600"
     inkscape:window-height="1137"
     inkscape:window-x="-8"
     inkscape:window-y="-8"
     inkscape:window-maximized="1"
     inkscape:pagecheckerboard="true"
     fit-margin-top="0"
     fit-margin-left="0"
     fit-margin-right="0"
     fit-margin-bottom="0" />
  <metadata
     id="metadata4491">
    <rdf:RDF>
      <cc:Work
         rdf:about="">
        <dc:format>image/svg+xml</dc:format>
        <dc:type
           rdf:resource="http://purl.org/dc/dcmitype/StillImage" />
        <dc:title></dc:title>
      </cc:Work>
    </rdf:RDF>
  </metadata>
  <g
     inkscape:label="Layer 1"
     inkscape:groupmode="layer"
     id="layer1"
     transform="translate(-58.717407,-88.999999)">
    <g
       id="g4536"
       style="fill:none;fill-opacity:1;stroke:#fbffff;stroke-opacity:1">
      <path
         sodipodi:nodetypes="cc"
         inkscape:connector-curvature="0"
         id="path5039"
         d="m 68,90 c 0,58 53,59 52,0"
         style="fill:none;fill-opacity:1;stroke:#fbffff;stroke-width:2px;stroke-linecap:butt;stroke-linejoin:miter;stroke-opacity:1" />
      <path
         sodipodi:nodetypes="cc"
         inkscape:connector-curvature="0"
         id="path5039-4"
         d="m 75.55592,169.14764 c 24.190476,0.16964 21.787792,-29.17266 6.453866,-40.06547"
         style="fill:none;fill-opacity:1;stroke:#fbffff;stroke-width:2px;stroke-linecap:butt;stroke-linejoin:miter;stroke-opacity:1" />
      <path
         sodipodi:nodetypes="cc"
         inkscape:connector-curvature="0"
         id="path5039-4-4"
         d="m 113.48415,169.1513 c -24.190472,0.16964 -21.787792,-29.17266 -6.45386,-40.06547"
         style="fill:none;fill-opacity:1;stroke:#fbffff;stroke-width:2px;stroke-linecap:butt;stroke-linejoin:miter;stroke-opacity:1" />
      <path
         sodipodi:nodetypes="cc"
         inkscape:connector-curvature="0"
         id="path4513"
         d="m 75.555919,169.14764 37.928231,0.004"
         style="fill:none;fill-opacity:1;stroke:#fbffff;stroke-width:2;stroke-linecap:butt;stroke-linejoin:miter;stroke-miterlimit:4;stroke-dasharray:none;stroke-opacity:1" />
    </g>
    <path
       style="fill:none;fill-opacity:1;stroke:#fbffff;stroke-width:2;stroke-linecap:butt;stroke-linejoin:miter;stroke-miterlimit:4;stroke-dasharray:none;stroke-opacity:1"
       d="m 68.443926,100 c -16.046403,0.15724 -7.336524,19.14248 5.055193,19.29483"
       id="path4515"
       inkscape:connector-curvature="0"
       sodipodi:nodetypes="cc" />
    <path
       style="fill:none;fill-opacity:1;stroke:#fbffff;stroke-width:2;stroke-linecap:butt;stroke-linejoin:miter;stroke-miterlimit:4;stroke-dasharray:none;stroke-opacity:1"
       d="m 119.37882,100 c 16.0464,0.15724 7.33652,19.14248 -5.0552,19.29483"
       id="path4515-8"
       inkscape:connector-curvature="0"
       sodipodi:nodetypes="cc" />
    <path
       style="fill:#ffffff;fill-opacity:1;stroke:#fbffff;stroke-width:7.55905533;stroke-miterlimit:4;stroke-dasharray:none;stroke-opacity:1"
       d="m 357.14271,563.3402 c -0.0877,-1.03566 -0.48208,-3.87949 -0.82668,-5.96146 -2.95239,-17.83728 -10.78927,-36.08885 -21.70867,-50.55804 -0.36133,-0.47879 -0.63137,-0.87053 -0.60009,-0.87053 0.0313,0 0.90664,0.26213 1.94523,0.58251 4.18468,1.29088 8.61567,2.23889 12.91513,2.76319 4.57399,0.55778 10.32293,0.64237 14.86607,0.21875 5.26002,-0.49047 10.45989,-1.55827 15.57733,-3.19883 0.61216,-0.19625 1.12803,-0.34182 1.14636,-0.32349 0.0183,0.0183 -0.32367,0.50854 -0.76,1.08935 -11.91916,15.86594 -19.93958,35.81914 -22.25942,55.37701 -0.0955,0.80512 -0.18863,1.47885 -0.20696,1.49718 -0.0183,0.0183 -0.0581,-0.25871 -0.0883,-0.61564 z"
       id="path4542"
       inkscape:connector-curvature="0"
       transform="scale(0.26458333)" />
    <path
       style="fill:none;fill-opacity:1;stroke:#fbffff;stroke-width:0.08928572;stroke-opacity:1"
       d="m 324.80513,634.59942 c 15.37022,-8.19293 25.74393,-21.65856 30.35944,-39.40818 0.79018,-3.03874 1.53312,-6.93528 1.88489,-9.88579 0.0862,-0.72291 0.16799,-1.30308 0.1818,-1.28928 0.0138,0.0138 0.12707,0.78607 0.25172,1.71615 1.16592,8.69967 3.48977,16.34838 7.13276,23.47678 5.68667,11.12734 14.35811,19.86171 25.36796,25.55204 l 1.42858,0.73835 -34.15179,0.002 -34.15179,0.002 1.69643,-0.90426 z"
       id="path4544"
       inkscape:connector-curvature="0"
       transform="scale(0.26458333)" />
    <path
       style="fill:#ffffff;fill-opacity:1;stroke:#fbffff;stroke-width:7.55905533;stroke-miterlimit:4;stroke-dasharray:none;stroke-opacity:1"
       d="m 327.78161,633.0504 c 14.62762,-8.7445 24.84174,-23.68307 28.30504,-41.39726 1.20745,-6.17593 1.12136,-6.06527 1.80584,-2.32143 3.42313,18.72326 12.62486,33.29217 26.82598,42.47302 1.69407,1.0952 3.70299,2.34576 4.46428,2.77902 l 1.38416,0.78777 -33.36045,0.0158 -33.36045,0.0158 z"
       id="path4546"
       inkscape:connector-curvature="0"
       transform="scale(0.26458333)" />
    <path
       style="fill:none;fill-opacity:1;stroke:#fbffff;stroke-width:2;stroke-linecap:square;stroke-linejoin:miter;stroke-miterlimit:4;stroke-dasharray:none;stroke-opacity:1"
       d="M 67.999998,89.999999 H 120"
       id="path4548"
       inkscape:connector-curvature="0"
       sodipodi:nodetypes="cc" />
    <path
       style="fill:#ffffff;fill-opacity:1;stroke:#fbffff;stroke-width:7.55905533;stroke-miterlimit:4;stroke-dasharray:none;stroke-opacity:1"
       d="M 344.0415,500.42572 C 329.47872,497.3028 315.99765,489.14779 303.13542,475.68069 278.80522,450.20632 263.54507,406.3064 261.67786,356.41687 l -0.44779,-11.96429 h 94.15138 94.15138 l -0.45181,13.75 c -1.16466,35.44413 -7.44261,64.18649 -19.38489,88.75 -14.53172,29.8896 -35.28454,48.45276 -59.8201,53.50841 -6.82032,1.40535 -19.1954,1.38845 -25.83453,-0.0353 z"
       id="path4550"
       inkscape:connector-curvature="0"
       transform="scale(0.26458333)" />
  </g>
</svg>
