<?xml version="1.0" encoding="UTF-8" standalone="no"?>
<!-- Created with Inkscape (http://www.inkscape.org/) -->

<svg
   xmlns:dc="http://purl.org/dc/elements/1.1/"
   xmlns:cc="http://creativecommons.org/ns#"
   xmlns:rdf="http://www.w3.org/1999/02/22-rdf-syntax-ns#"
   xmlns:svg="http://www.w3.org/2000/svg"
   xmlns="http://www.w3.org/2000/svg"
   xmlns:xlink="http://www.w3.org/1999/xlink"
   xmlns:sodipodi="http://sodipodi.sourceforge.net/DTD/sodipodi-0.dtd"
   xmlns:inkscape="http://www.inkscape.org/namespaces/inkscape"
   width="106.76102mm"
   height="122.49139mm"
   viewBox="0 0 106.76102 122.49139"
   version="1.1"
   id="svg8"
   inkscape:version="0.92.1 r15371"
   sodipodi:docname="racket.svg">
  <defs
     id="defs2">
    <linearGradient
       inkscape:collect="always"
       id="linearGradient965">
      <stop
         style="stop-color:#13ffde;stop-opacity:1;"
         offset="0"
         id="stop961" />
      <stop
         style="stop-color:#6affea;stop-opacity:0"
         offset="1"
         id="stop963" />
    </linearGradient>
    <linearGradient
       inkscape:collect="always"
       id="linearGradient84">
      <stop
         style="stop-color:#bbff00;stop-opacity:1;"
         offset="0"
         id="stop80" />
      <stop
         style="stop-color:#bbff00;stop-opacity:0;"
         offset="1"
         id="stop82" />
    </linearGradient>
    <inkscape:path-effect
       effect="skeletal"
       id="path-effect830"
       is_visible="true"
       pattern="m -28.348214,21.252976 c 0,-2.76 2.24,-5 5,-5 2.76,0 5,2.24 5,5 0,2.76 -2.24,5 -5,5 -2.76,0 -5,-2.24 -5,-5 z"
       copytype="single_stretched"
       prop_scale="0.26458333"
       scale_y_rel="false"
       spacing="0"
       normal_offset="0"
       tang_offset="0"
       prop_units="false"
       vertical_pattern="false"
       fuse_tolerance="0" />
    <inkscape:path-effect
       effect="skeletal"
       id="path-effect830-1"
       is_visible="true"
       pattern="m 55.922256,146.27204 c 0,-2.76 2.239995,-5 4.999995,-5 2.76,0 5,2.24 5,5 0,2.76 -2.24,5 -5,5 -2.76,0 -4.999995,-2.24 -4.999995,-5 z"
       copytype="single_stretched"
       prop_scale="0.26116304"
       scale_y_rel="false"
       spacing="0"
       normal_offset="0"
       tang_offset="0"
       prop_units="false"
       vertical_pattern="false"
       fuse_tolerance="0" />
    <linearGradient
       inkscape:collect="always"
       xlink:href="#linearGradient84"
       id="linearGradient86"
       x1="102.52459"
       y1="184.092"
       x2="89.147751"
       y2="203.26857"
       gradientUnits="userSpaceOnUse"
       gradientTransform="matrix(1.5515151,0,0,1.5515151,-78.974012,-202.51896)" />
    <linearGradient
       inkscape:collect="always"
       xlink:href="#linearGradient965"
       id="linearGradient967"
       x1="-38.886169"
       y1="129.17024"
       x2="-31.749224"
       y2="244.87483"
       gradientUnits="userSpaceOnUse"
       gradientTransform="translate(35.307208,-97.712115)" />
  </defs>
  <sodipodi:namedview
     id="base"
     pagecolor="#ffffff"
     bordercolor="#666666"
     borderopacity="1.0"
     inkscape:pageopacity="0.0"
     inkscape:pageshadow="2"
     inkscape:zoom="0.70710678"
     inkscape:cx="37.287005"
     inkscape:cy="46.126809"
     inkscape:document-units="mm"
     inkscape:current-layer="layer4"
     showgrid="false"
     inkscape:window-width="1600"
     inkscape:window-height="1137"
     inkscape:window-x="-8"
     inkscape:window-y="-8"
     inkscape:window-maximized="1"
     fit-margin-top="0"
     fit-margin-left="0"
     fit-margin-right="0"
     fit-margin-bottom="0" />
  <metadata
     id="metadata5">
    <rdf:RDF>
      <cc:Work
         rdf:about="">
        <dc:format>image/svg+xml</dc:format>
        <dc:type
           rdf:resource="http://purl.org/dc/dcmitype/StillImage" />
        <dc:title></dc:title>
      </cc:Work>
    </rdf:RDF>
  </metadata>
  <g
     inkscape:groupmode="layer"
     id="layer3"
     inkscape:label="Layer 3"
     transform="translate(-0.59456651,-0.61368447)" />
  <g
     inkscape:groupmode="layer"
     id="layer4"
     inkscape:label="Layer 4"
     transform="translate(-0.59456651,-0.61368447)">
    <ellipse
       id="path88"
       cx="5.6553245"
       cy="84.527573"
       rx="41.587486"
       ry="65.752029"
       style="display:inline;fill:url(#linearGradient967);fill-opacity:1;stroke:none;stroke-width:0.25919583;stroke-opacity:1"
       transform="matrix(0.90091246,-0.43400085,0.57827433,0.81584238,0,0)" />
    <path
       style="display:inline;fill:url(#linearGradient86);fill-opacity:1;stroke:none;stroke-width:1.08606052;stroke-linecap:square;stroke-miterlimit:4;stroke-dasharray:none;stroke-opacity:1;paint-order:markers stroke fill"
       d="M 97.539326,93.137616 A 19.35238,19.35238 0 0 1 78.186956,112.48999 19.35238,19.35238 0 0 1 58.834567,93.137616 19.35238,19.35238 0 0 1 78.186956,73.785226 19.35238,19.35238 0 0 1 97.539326,93.137616 Z"
       id="path4858"
       inkscape:connector-curvature="0" />
  </g>
  <g
     inkscape:groupmode="layer"
     id="layer2"
     inkscape:label="Layer 2"
     style="display:inline"
     transform="translate(-0.59456651,-0.61368447)">
    <path
       style="display:inline;fill:none;fill-opacity:0;stroke:#000000;stroke-width:0.77575755;stroke-linecap:square;stroke-linejoin:miter;stroke-miterlimit:4;stroke-dasharray:none;stroke-opacity:1"
       d="m 93.805076,103.88628 c -0.0355,-0.0265 -0.0715,-0.34522 -0.085,-0.36777 -2.65501,-9.690514 -9.10145,-14.246974 -15.27621,-14.113254 -6.561023,0.14212 -13.314324,5.33608 -14.07389,16.756694 -0.03193,0.0226 0.09301,0.029 0.06152,0.0574"
       id="path4862"
       inkscape:connector-curvature="0"
       sodipodi:nodetypes="ccscc" />
  </g>
  <g
     inkscape:label="Layer 1"
     inkscape:groupmode="layer"
     id="layer1"
     style="display:inline"
     transform="translate(-0.59456651,-0.61368447)">
    <g
       id="g4856"
       transform="rotate(31.719219,217.01443,47.505081)">
      <ellipse
         style="fill:none;stroke:#000000;stroke-width:3;stroke-miterlimit:4;stroke-dasharray:none;stroke-opacity:1"
         ry="35.145943"
         rx="25.79151"
         cy="119.88347"
         cx="76.020538"
         id="path12" />
      <path
         inkscape:connector-curvature="0"
         id="path822"
         d="M 76.688706,203.4052 V 176.67825"
         style="fill:none;stroke:#000000;stroke-width:5;stroke-linecap:butt;stroke-linejoin:miter;stroke-miterlimit:4;stroke-dasharray:none;stroke-opacity:1" />
      <path
         sodipodi:nodetypes="cc"
         inkscape:original-d="m 76.688706,203.4052 c -2.03388,-42.55433 11.56531,-49.81017 20.92365,-62.13139"
         inkscape:path-effect="#path-effect830"
         inkscape:connector-curvature="0"
         id="path828"
         d="m 76.688706,203.4052 c -0.183691,0.009 -2.521466,-11.04017 -0.173495,-26.138 1e-6,0 1e-6,0 1e-6,0 0.400233,-2.57752 0.963015,-5.26185 1.749363,-7.96763 0.925522,-3.18467 2.085788,-6.14106 3.474444,-8.86439 2.266706,-4.42568 5.137889,-8.10925 7.603334,-10.87696 4.757858,-5.34697 8.157297,-8.37002 8.270004,-8.28441 0.316635,0.24049 -2.403165,3.96886 -6.736767,9.55927 -2.204058,2.8473 -4.832052,6.535 -6.857712,10.73592 -1.261909,2.60406 -2.328652,5.41961 -3.211759,8.46803 -0.749495,2.58721 -1.31578,5.1665 -1.753398,7.65024 0,0 0,0 0,0 -2.544305,14.46317 -1.741702,25.68819 -2.364015,25.71793 z"
         style="fill:#000000;stroke:none;stroke-width:5;stroke-linecap:butt;stroke-linejoin:miter;stroke-miterlimit:4;stroke-dasharray:none;stroke-opacity:1" />
      <path
         sodipodi:nodetypes="cc"
         inkscape:original-d="M 76.870896,203.4052 C 78.904776,161.95108 65.30557,154.88283 55.94723,142.88016"
         inkscape:path-effect="#path-effect830-1"
         inkscape:connector-curvature="0"
         id="path828-1"
         d="m 76.870896,203.4052 c -0.612792,-0.0301 0.196756,-10.96662 -2.345755,-25.04511 0,0 0,0 0,0 -0.444223,-2.45622 -1.021665,-5.00724 -1.788018,-7.56349 -0.877174,-2.9259 -1.932819,-5.6287 -3.176014,-8.12616 -2.029822,-4.09849 -4.660617,-7.68967 -6.86105,-10.45846 -4.336421,-5.44846 -7.063496,-9.0896 -6.75283,-9.33182 0.110682,-0.0863 3.50142,2.8473 8.253946,8.05054 2.457445,2.6874 5.328297,6.27263 7.600007,10.59563 1.368236,2.61556 2.516819,5.4574 3.437631,8.51904 0.805334,2.67768 1.38031,5.33682 1.787312,7.8897 0,0 0,1e-5 0,1e-5 2.350456,14.72266 0.01743,25.47859 -0.155229,25.47012 z"
         style="fill:#000000;stroke:none;stroke-width:4.93494129;stroke-linecap:butt;stroke-linejoin:miter;stroke-miterlimit:4;stroke-dasharray:none;stroke-opacity:1" />
      <path
         inkscape:connector-curvature="0"
         id="path860"
         d="M 54.655356,98.826547 H 95.854759"
         style="fill:none;stroke:#000000;stroke-width:0.5;stroke-linecap:square;stroke-linejoin:miter;stroke-miterlimit:4;stroke-dasharray:none;stroke-opacity:1;paint-order:markers stroke fill" />
      <path
         inkscape:connector-curvature="0"
         id="path860-1"
         d="m 52.789054,103.4584 h 45.121"
         style="fill:none;stroke:#000000;stroke-width:0.52325559;stroke-linecap:square;stroke-linejoin:miter;stroke-miterlimit:4;stroke-dasharray:none;stroke-opacity:1;paint-order:markers stroke fill" />
      <path
         inkscape:connector-curvature="0"
         id="path860-3"
         d="M 52.607865,108.08891 H 99.036184"
         style="fill:none;stroke:#000000;stroke-width:0.53078175;stroke-linecap:square;stroke-linejoin:miter;stroke-miterlimit:4;stroke-dasharray:none;stroke-opacity:1;paint-order:markers stroke fill" />
      <path
         inkscape:connector-curvature="0"
         id="path860-5"
         d="M 51.11063,112.71663 H 99.966455"
         style="fill:none;stroke:#000000;stroke-width:0.54448092;stroke-linecap:square;stroke-linejoin:miter;stroke-miterlimit:4;stroke-dasharray:none;stroke-opacity:1;paint-order:markers stroke fill" />
      <path
         inkscape:connector-curvature="0"
         id="path860-0"
         d="M 51.298567,117.34011 H 99.967499"
         style="fill:none;stroke:#000000;stroke-width:0.54343855;stroke-linecap:square;stroke-linejoin:miter;stroke-miterlimit:4;stroke-dasharray:none;stroke-opacity:1;paint-order:markers stroke fill" />
      <path
         inkscape:connector-curvature="0"
         id="path860-9"
         d="M 51.113852,121.96412 H 100.53019"
         style="fill:none;stroke:#000000;stroke-width:0.54759544;stroke-linecap:square;stroke-linejoin:miter;stroke-miterlimit:4;stroke-dasharray:none;stroke-opacity:1;paint-order:markers stroke fill" />
      <path
         inkscape:connector-curvature="0"
         id="path860-9-7"
         d="M 51.956955,126.58761 H 100.06507"
         style="fill:none;stroke:#000000;stroke-width:0.54029846;stroke-linecap:square;stroke-linejoin:miter;stroke-miterlimit:4;stroke-dasharray:none;stroke-opacity:1;paint-order:markers stroke fill" />
      <path
         inkscape:connector-curvature="0"
         id="path860-9-0"
         d="M 51.767967,131.21111 H 99.876083"
         style="fill:none;stroke:#000000;stroke-width:0.54029846;stroke-linecap:square;stroke-linejoin:miter;stroke-miterlimit:4;stroke-dasharray:none;stroke-opacity:1;paint-order:markers stroke fill" />
      <path
         inkscape:connector-curvature="0"
         id="path860-9-6"
         d="M 53.631611,135.82114 H 97.067487"
         style="fill:none;stroke:#000000;stroke-width:0.51339179;stroke-linecap:square;stroke-linejoin:miter;stroke-miterlimit:4;stroke-dasharray:none;stroke-opacity:1;paint-order:markers stroke fill" />
      <path
         inkscape:connector-curvature="0"
         id="path860-9-1"
         d="M 56.633381,140.43276 H 96.144596"
         style="fill:none;stroke:#000000;stroke-width:0.48964885;stroke-linecap:square;stroke-linejoin:miter;stroke-miterlimit:4;stroke-dasharray:none;stroke-opacity:1;paint-order:markers stroke fill" />
      <path
         inkscape:connector-curvature="0"
         id="path860-9-2"
         d="M 58.304889,145.03946 H 92.583205"
         style="fill:none;stroke:#000000;stroke-width:0.45607293;stroke-linecap:square;stroke-linejoin:miter;stroke-miterlimit:4;stroke-dasharray:none;stroke-opacity:1;paint-order:markers stroke fill" />
      <path
         inkscape:connector-curvature="0"
         id="path860-9-04"
         d="m 64.665899,149.62708 h 24.34543"
         style="fill:none;stroke:#000000;stroke-width:0.38435563;stroke-linecap:square;stroke-linejoin:miter;stroke-miterlimit:4;stroke-dasharray:none;stroke-opacity:1;paint-order:markers stroke fill" />
      <path
         inkscape:connector-curvature="0"
         id="path860-9-05"
         d="M 58.808218,94.176547 H 91.734322"
         style="fill:none;stroke:#000000;stroke-width:0.44698685;stroke-linecap:square;stroke-linejoin:miter;stroke-miterlimit:4;stroke-dasharray:none;stroke-opacity:1;paint-order:markers stroke fill" />
      <path
         inkscape:connector-curvature="0"
         id="path860-9-68"
         d="M 62.976418,89.528869 H 89.158331"
         style="fill:none;stroke:#000000;stroke-width:0.39858896;stroke-linecap:square;stroke-linejoin:miter;stroke-miterlimit:4;stroke-dasharray:none;stroke-opacity:1;paint-order:markers stroke fill" />
      <path
         inkscape:connector-curvature="0"
         id="path860-9-05-8"
         d="M 73.408373,84.611571 V 153.52384"
         style="fill:none;stroke:#000000;stroke-width:0.64665544;stroke-linecap:square;stroke-linejoin:miter;stroke-miterlimit:4;stroke-dasharray:none;stroke-opacity:1;paint-order:markers stroke fill" />
      <path
         inkscape:connector-curvature="0"
         id="path860-9-05-8-3"
         d="M 78.349058,85.273031 V 154.1853"
         style="fill:none;stroke:#000000;stroke-width:0.64665544;stroke-linecap:square;stroke-linejoin:miter;stroke-miterlimit:4;stroke-dasharray:none;stroke-opacity:1;paint-order:markers stroke fill" />
      <path
         inkscape:connector-curvature="0"
         id="path860-9-05-8-5"
         d="M 83.28975,86.774395 V 153.42935"
         style="fill:none;stroke:#000000;stroke-width:0.6359762;stroke-linecap:square;stroke-linejoin:miter;stroke-miterlimit:4;stroke-dasharray:none;stroke-opacity:1;paint-order:markers stroke fill" />
      <path
         inkscape:connector-curvature="0"
         id="path860-9-05-8-7"
         d="M 88.230437,88.646706 V 151.56758"
         style="fill:none;stroke:#000000;stroke-width:0.61790544;stroke-linecap:square;stroke-linejoin:miter;stroke-miterlimit:4;stroke-dasharray:none;stroke-opacity:1;paint-order:markers stroke fill" />
      <path
         inkscape:connector-curvature="0"
         id="path860-9-05-8-9"
         d="M 93.171131,93.508704 V 145.91362"
         style="fill:none;stroke:#000000;stroke-width:0.56391114;stroke-linecap:square;stroke-linejoin:miter;stroke-miterlimit:4;stroke-dasharray:none;stroke-opacity:1;paint-order:markers stroke fill" />
      <path
         inkscape:connector-curvature="0"
         id="path860-9-05-8-4"
         d="M 68.46769,85.839996 V 154.75227"
         style="fill:none;stroke:#000000;stroke-width:0.64665544;stroke-linecap:square;stroke-linejoin:miter;stroke-miterlimit:4;stroke-dasharray:none;stroke-opacity:1;paint-order:markers stroke fill" />
      <path
         inkscape:connector-curvature="0"
         id="path860-9-05-8-6"
         d="M 63.526998,89.774927 V 151.55441"
         style="fill:none;stroke:#000000;stroke-width:0.61227536;stroke-linecap:square;stroke-linejoin:miter;stroke-miterlimit:4;stroke-dasharray:none;stroke-opacity:1;paint-order:markers stroke fill" />
      <path
         inkscape:connector-curvature="0"
         id="path860-9-05-8-65"
         d="M 58.58631,93.701453 V 146.85743"
         style="fill:none;stroke:#000000;stroke-width:0.56793773;stroke-linecap:square;stroke-linejoin:miter;stroke-miterlimit:4;stroke-dasharray:none;stroke-opacity:1;paint-order:markers stroke fill" />
      <path
         sodipodi:nodetypes="cccc"
         inkscape:connector-curvature="0"
         id="path4716"
         d="m 74.328605,198.17708 c -0.277823,1.8042 -0.428421,3.65767 -1.23039,5.3454 l 7.192654,0.004 c -0.847819,-1.73933 -1.006996,-3.61604 -1.245908,-5.41626"
         style="fill:none;stroke:#000000;stroke-width:0.26458332px;stroke-linecap:butt;stroke-linejoin:miter;stroke-opacity:1" />
      <path
         transform="scale(0.26458333)"
         inkscape:connector-curvature="0"
         id="path4742"
         d="m 277.44257,767.9458 c 0.84208,-1.9865 1.86695,-5.5725 2.39226,-8.37054 0.28799,-1.53393 0.28374,-1.51786 0.40115,-1.51786 0.0622,0 0.0921,1.72259 0.0921,5.3125 v 5.3125 h -1.59888 -1.59887 z"
         style="fill:none;stroke:#000000;stroke-width:0.23622046;stroke-linecap:square;stroke-miterlimit:4;stroke-dasharray:none;stroke-opacity:1;paint-order:markers stroke fill" />
      <path
         transform="scale(0.26458333)"
         inkscape:connector-curvature="0"
         id="path4744"
         d="m 277.79706,767.49937 c 0.66389,-1.67941 1.69806,-5.29974 2.05754,-7.20287 0.041,-0.21715 0.12415,-0.41135 0.18473,-0.43154 0.0863,-0.0288 0.11016,0.90093 0.11016,4.30107 v 4.3378 h -1.37475 -1.37476 z"
         style="fill:none;stroke:#000000;stroke-width:0.23622046;stroke-linecap:square;stroke-miterlimit:4;stroke-dasharray:none;stroke-opacity:1;paint-order:markers stroke fill" />
      <path
         transform="scale(0.26458333)"
         inkscape:connector-curvature="0"
         id="path4746"
         d="m 277.84204,767.85651 c 0.34838,-0.85978 1.12305,-3.30907 1.50376,-4.75446 0.20695,-0.78572 0.39083,-1.4788 0.40861,-1.54018 0.0178,-0.0614 0.0738,-0.11161 0.12442,-0.11161 0.0617,0 0.0921,1.13562 0.0921,3.4375 v 3.4375 h -1.15941 -1.15941 z"
         style="fill:none;stroke:#000000;stroke-width:0.23622046;stroke-linecap:square;stroke-miterlimit:4;stroke-dasharray:none;stroke-opacity:1;paint-order:markers stroke fill" />
      <path
         transform="scale(0.26458333)"
         inkscape:connector-curvature="0"
         id="path4748"
         d="m 278.36971,766.87437 c 0.24008,-0.69978 0.61415,-1.89374 0.83127,-2.65325 0.21712,-0.7595 0.439,-1.39566 0.49307,-1.41369 0.0701,-0.0234 0.0983,0.73795 0.0983,2.65325 v 2.68601 h -0.92957 -0.92957 z"
         style="fill:none;stroke:#000000;stroke-width:0.23622046;stroke-linecap:square;stroke-miterlimit:4;stroke-dasharray:none;stroke-opacity:1;paint-order:markers stroke fill" />
      <path
         transform="scale(0.26458333)"
         inkscape:connector-curvature="0"
         id="path4750"
         d="m 278.20983,767.85417 c 0.0478,-0.12468 0.90459,-2.75251 1.08175,-3.31797 0.0606,-0.19336 0.15786,-0.36747 0.21617,-0.38691 0.0797,-0.0265 0.10603,0.44385 0.10603,1.89174 v 1.92709 h -0.72384 c -0.55031,0 -0.71335,-0.0273 -0.68011,-0.11395 z"
         style="fill:none;stroke:#000000;stroke-width:0.23622046;stroke-linecap:square;stroke-miterlimit:4;stroke-dasharray:none;stroke-opacity:1;paint-order:markers stroke fill" />
      <path
         transform="scale(0.26458333)"
         inkscape:connector-curvature="0"
         id="path4752"
         d=""
         style="fill:none;stroke:#000000;stroke-width:0.23622046;stroke-linecap:square;stroke-miterlimit:4;stroke-dasharray:none;stroke-opacity:1;paint-order:markers stroke fill" />
      <path
         transform="scale(0.26458333)"
         inkscape:connector-curvature="0"
         id="path4754"
         d=""
         style="fill:none;stroke:#000000;stroke-width:0.23622046;stroke-linecap:square;stroke-miterlimit:4;stroke-dasharray:none;stroke-opacity:1;paint-order:markers stroke fill" />
      <path
         transform="scale(0.26458333)"
         inkscape:connector-curvature="0"
         id="path4756"
         d=""
         style="fill:none;stroke:#000000;stroke-width:0.23622046;stroke-linecap:square;stroke-miterlimit:4;stroke-dasharray:none;stroke-opacity:1;paint-order:markers stroke fill" />
      <path
         transform="scale(0.26458333)"
         inkscape:connector-curvature="0"
         id="path4758"
         d="m 278.45387,767.72258 c 0.002,-0.20515 0.80696,-2.47908 0.88645,-2.50557 0.0641,-0.0214 0.0949,0.39082 0.0949,1.27045 v 1.30209 h -0.49107 c -0.27009,0 -0.49071,-0.0301 -0.49027,-0.067 z"
         style="fill:none;stroke:#000000;stroke-width:0.23622046;stroke-linecap:square;stroke-miterlimit:4;stroke-dasharray:none;stroke-opacity:1;paint-order:markers stroke fill" />
      <path
         transform="scale(0.26458333)"
         inkscape:connector-curvature="0"
         id="path4760"
         d="m 278.84489,767.01357 c 0.3033,-0.89912 0.55547,-0.83467 0.44404,0.11348 -0.056,0.47634 -0.0615,0.48392 -0.35122,0.48392 h -0.29434 z"
         style="fill:none;stroke:#000000;stroke-width:0.23622046;stroke-linecap:square;stroke-miterlimit:4;stroke-dasharray:none;stroke-opacity:1;paint-order:markers stroke fill" />
      <path
         transform="scale(0.26458333)"
         inkscape:connector-curvature="0"
         id="path4762"
         d="m 275.59592,769.63307 c 0,-0.0173 0.19643,-0.44923 0.43652,-0.95982 0.78905,-1.67808 1.61813,-4.09483 2.18692,-6.37478 0.57384,-2.30018 1.05665,-5.02395 1.79319,-10.11622 l 0.40423,-2.7948 8.6e-4,-41.01636 8.6e-4,-41.01636 -0.26847,-1.27813 c -0.14767,-0.70297 -0.2894,-1.36887 -0.31497,-1.47978 l -0.0465,-0.20165 4.93493,0.0231 4.93492,0.0231 0.1256,0.71429 c 0.0691,0.39285 0.13662,0.6741 0.1501,0.625 0.0135,-0.0491 0.0711,-0.38058 0.12801,-0.73661 l 0.1035,-0.64732 h 4.94729 c 2.72101,0 4.94687,0.0301 4.94635,0.067 -5.3e-4,0.0368 -0.18131,0.98876 -0.40178,2.11539 l -0.40085,2.04842 v 40.28303 40.28304 l 0.40348,3.07033 c 0.6373,4.84953 1.03743,7.11756 1.75094,9.92479 0.60914,2.3966 1.62922,5.23809 2.49904,6.96118 l 0.25982,0.51472 h -14.287 c -7.85785,0 -14.287,-0.0142 -14.287,-0.0315 z m 27.00147,-1.1962 c -1.47768,-3.44093 -2.31757,-6.46133 -3.19657,-11.49554 -0.11275,-0.64571 -0.12566,-0.11218 -0.13445,5.55804 l -0.01,6.27232 h 1.74227 1.74227 z m -25.01201,-0.35336 c -0.0531,-0.13832 0.15937,-0.12338 0.26364,0.0185 0.0404,0.055 0.0661,0.0458 0.067,-0.024 9.4e-4,-0.0779 0.0754,-0.0947 0.2379,-0.0539 0.16647,0.0418 0.2178,0.029 0.1733,-0.043 -0.0384,-0.0621 -0.001,-0.1023 0.0938,-0.1023 0.11608,0 0.13092,-0.0261 0.0569,-0.10017 -0.0551,-0.0551 -0.0794,-0.16558 -0.0541,-0.24553 0.0355,-0.11197 0.0265,-0.11797 -0.0393,-0.0261 -0.13512,0.18872 -0.2061,0.16675 -0.35029,-0.10846 -0.11206,-0.21387 -0.11445,-0.26992 -0.0142,-0.33345 0.0965,-0.0611 0.0972,-0.0766 0.004,-0.0777 -0.0643,-8.9e-4 -0.0962,-0.0349 -0.0709,-0.0758 0.0253,-0.0409 -0.009,-0.0744 -0.0755,-0.0744 -0.0712,0 -0.10025,0.0553 -0.0702,0.1337 0.0363,0.0947 0.0164,0.11214 -0.0683,0.0598 -0.0874,-0.054 -0.10428,-0.0339 -0.0626,0.0746 0.0746,0.19438 -0.0189,0.43176 -0.14048,0.35662 -0.0596,-0.0368 -0.0738,-0.003 -0.0381,0.0898 0.07,0.1825 -0.0159,0.4336 -0.12531,0.366 -0.092,-0.0568 -0.0999,-0.0161 -0.0314,0.16217 0.0267,0.0695 0.10319,0.12635 0.17006,0.12635 0.0669,0 0.10038,-0.0552 0.0745,-0.1227 z m 1.76054,-0.51718 c 0,-0.0737 -0.0158,-0.13393 -0.0351,-0.13393 -0.0193,0 -0.0582,0.0603 -0.0865,0.13393 -0.0283,0.0737 -0.0125,0.13393 0.0351,0.13393 0.0476,0 0.0865,-0.0603 0.0865,-0.13393 z m -0.14509,-0.32366 c 0.0839,-0.4194 0.0674,-0.70312 -0.0409,-0.70312 -0.0532,0 -0.0783,-0.0502 -0.0558,-0.11161 0.0225,-0.0614 0.0861,-0.10156 0.14137,-0.0893 0.13013,0.0289 0.13348,-0.64197 0.004,-0.88316 -0.0872,-0.16296 -0.079,-0.17035 0.0893,-0.0803 0.17816,0.0953 0.18533,0.0781 0.18533,-0.44493 0,-0.34002 0.0335,-0.52343 0.0893,-0.48895 0.0563,0.0348 0.0893,-0.1794 0.0893,-0.58036 0,-0.40095 0.0329,-0.61517 0.0893,-0.58035 0.0563,0.0348 0.0893,-0.17941 0.0893,-0.58036 0,-0.40096 0.0329,-0.61517 0.0893,-0.58036 0.057,0.0353 0.0893,-0.23893 0.0893,-0.75893 0,-0.52 0.0323,-0.79417 0.0893,-0.75892 0.057,0.0353 0.0893,-0.23893 0.0893,-0.75893 0,-0.52 0.0323,-0.79418 0.0893,-0.75893 0.0584,0.0361 0.0863,-0.51032 0.0806,-1.57956 l -0.009,-1.63473 -0.16326,0.9375 c -0.20005,1.14878 -0.20571,1.25584 -0.0649,1.22768 0.0668,-0.0134 0.12282,0.094 0.13953,0.26721 0.0212,0.22017 -0.002,0.27789 -0.0986,0.24096 -0.0973,-0.0373 -0.1523,0.11106 -0.23798,0.64223 -0.0613,0.37994 -0.13044,0.75365 -0.15366,0.83047 -0.031,0.10256 -0.0155,0.0982 0.0582,-0.0166 0.14398,-0.22392 0.27016,-0.19265 0.27016,0.067 0,0.12277 -0.0456,0.21317 -0.10125,0.20089 -0.0558,-0.0123 -0.15432,0.19816 -0.21943,0.46875 -0.14981,0.62252 -0.15179,0.71949 -0.0141,0.69197 0.0627,-0.0126 0.12396,0.085 0.13981,0.22267 0.0207,0.18005 -0.005,0.23229 -0.0966,0.19711 -0.0907,-0.0348 -0.15488,0.0868 -0.23519,0.44563 -0.0607,0.27143 -0.0814,0.54049 -0.0459,0.59793 0.0431,0.0697 0.0255,0.0803 -0.0526,0.032 -0.0873,-0.0539 -0.10429,-0.0233 -0.0668,0.12026 0.0277,0.10597 0.018,0.17263 -0.0216,0.14815 -0.0396,-0.0245 -0.0722,0.10604 -0.0724,0.29005 -9.7e-4,0.80454 -0.0389,1.16468 -0.16442,1.56024 -0.0737,0.23216 -0.1047,0.46939 -0.069,0.52719 0.0426,0.069 0.0263,0.0812 -0.0477,0.0355 -0.0838,-0.0518 -0.0963,-0.0181 -0.0489,0.13131 0.0372,0.11733 0.0292,0.17958 -0.0193,0.14962 -0.0457,-0.0282 -0.0808,0.0772 -0.0781,0.23435 0.003,0.15712 -0.0288,0.38111 -0.07,0.49775 -0.0523,0.14803 -0.0451,0.19362 0.0239,0.15098 0.12168,-0.0752 0.12311,-0.0367 0.01,0.26151 -0.049,0.12892 -0.12937,0.20952 -0.17857,0.17912 -0.12515,-0.0774 -0.11196,0.0756 0.0177,0.20525 0.19808,0.19808 0.40333,0.12173 0.46205,-0.17188 z"
         style="fill:none;stroke:#000000;stroke-width:0.23622046;stroke-linecap:square;stroke-miterlimit:4;stroke-dasharray:none;stroke-opacity:1;paint-order:markers stroke fill" />
      <path
         transform="scale(0.26458333)"
         inkscape:connector-curvature="0"
         id="path4764"
         d="m 275.59592,769.63307 c 0,-0.0173 0.19643,-0.44923 0.43652,-0.95982 0.78905,-1.67808 1.61813,-4.09483 2.18692,-6.37478 0.57384,-2.30018 1.05665,-5.02395 1.79319,-10.11622 l 0.40423,-2.7948 8.6e-4,-41.01636 8.6e-4,-41.01636 -0.26847,-1.27813 c -0.14767,-0.70297 -0.2894,-1.36887 -0.31497,-1.47978 l -0.0465,-0.20165 4.93493,0.0231 4.93492,0.0231 0.1256,0.71429 c 0.0691,0.39285 0.13662,0.6741 0.1501,0.625 0.0135,-0.0491 0.0711,-0.38058 0.12801,-0.73661 l 0.1035,-0.64732 h 4.94729 c 2.72101,0 4.94687,0.0301 4.94635,0.067 -5.3e-4,0.0368 -0.18131,0.98876 -0.40178,2.11539 l -0.40085,2.04842 v 40.28303 40.28304 l 0.40348,3.07033 c 0.6373,4.84953 1.03743,7.11756 1.75094,9.92479 0.60914,2.3966 1.62922,5.23809 2.49904,6.96118 l 0.25982,0.51472 h -14.287 c -7.85785,0 -14.287,-0.0142 -14.287,-0.0315 z m 27.00147,-1.1962 c -1.47768,-3.44093 -2.31757,-6.46133 -3.19657,-11.49554 -0.11275,-0.64571 -0.12566,-0.11218 -0.13445,5.55804 l -0.01,6.27232 h 1.74227 1.74227 z m -25.01201,-0.35336 c -0.0531,-0.13832 0.15937,-0.12338 0.26364,0.0185 0.0404,0.055 0.0661,0.0458 0.067,-0.024 9.4e-4,-0.0779 0.0754,-0.0947 0.2379,-0.0539 0.16647,0.0418 0.2178,0.029 0.1733,-0.043 -0.0384,-0.0621 -0.001,-0.1023 0.0938,-0.1023 0.11608,0 0.13092,-0.0261 0.0569,-0.10017 -0.0551,-0.0551 -0.0794,-0.16558 -0.0541,-0.24553 0.0355,-0.11197 0.0265,-0.11797 -0.0393,-0.0261 -0.13512,0.18872 -0.2061,0.16675 -0.35029,-0.10846 -0.11206,-0.21387 -0.11445,-0.26992 -0.0142,-0.33345 0.0965,-0.0611 0.0972,-0.0766 0.004,-0.0777 -0.0643,-8.9e-4 -0.0962,-0.0349 -0.0709,-0.0758 0.0253,-0.0409 -0.009,-0.0744 -0.0755,-0.0744 -0.0712,0 -0.10025,0.0553 -0.0702,0.1337 0.0363,0.0947 0.0164,0.11214 -0.0683,0.0598 -0.0874,-0.054 -0.10428,-0.0339 -0.0626,0.0746 0.0746,0.19438 -0.0189,0.43176 -0.14048,0.35662 -0.0596,-0.0368 -0.0738,-0.003 -0.0381,0.0898 0.07,0.1825 -0.0159,0.4336 -0.12531,0.366 -0.092,-0.0568 -0.0999,-0.0161 -0.0314,0.16217 0.0267,0.0695 0.10319,0.12635 0.17006,0.12635 0.0669,0 0.10038,-0.0552 0.0745,-0.1227 z m 1.76054,-0.51718 c 0,-0.0737 -0.0158,-0.13393 -0.0351,-0.13393 -0.0193,0 -0.0582,0.0603 -0.0865,0.13393 -0.0283,0.0737 -0.0125,0.13393 0.0351,0.13393 0.0476,0 0.0865,-0.0603 0.0865,-0.13393 z m -0.14509,-0.32366 c 0.0839,-0.4194 0.0674,-0.70312 -0.0409,-0.70312 -0.0532,0 -0.0783,-0.0502 -0.0558,-0.11161 0.0225,-0.0614 0.0861,-0.10156 0.14137,-0.0893 0.13013,0.0289 0.13348,-0.64197 0.004,-0.88316 -0.0872,-0.16296 -0.079,-0.17035 0.0893,-0.0803 0.17816,0.0953 0.18533,0.0781 0.18533,-0.44493 0,-0.34002 0.0335,-0.52343 0.0893,-0.48895 0.0563,0.0348 0.0893,-0.1794 0.0893,-0.58036 0,-0.40095 0.0329,-0.61517 0.0893,-0.58035 0.0563,0.0348 0.0893,-0.17941 0.0893,-0.58036 0,-0.40096 0.0329,-0.61517 0.0893,-0.58036 0.057,0.0353 0.0893,-0.23893 0.0893,-0.75893 0,-0.52 0.0323,-0.79417 0.0893,-0.75892 0.057,0.0353 0.0893,-0.23893 0.0893,-0.75893 0,-0.52 0.0323,-0.79418 0.0893,-0.75893 0.0584,0.0361 0.0863,-0.51032 0.0806,-1.57956 l -0.009,-1.63473 -0.16326,0.9375 c -0.20005,1.14878 -0.20571,1.25584 -0.0649,1.22768 0.0668,-0.0134 0.12282,0.094 0.13953,0.26721 0.0212,0.22017 -0.002,0.27789 -0.0986,0.24096 -0.0973,-0.0373 -0.1523,0.11106 -0.23798,0.64223 -0.0613,0.37994 -0.13044,0.75365 -0.15366,0.83047 -0.031,0.10256 -0.0155,0.0982 0.0582,-0.0166 0.14398,-0.22392 0.27016,-0.19265 0.27016,0.067 0,0.12277 -0.0456,0.21317 -0.10125,0.20089 -0.0558,-0.0123 -0.15432,0.19816 -0.21943,0.46875 -0.14981,0.62252 -0.15179,0.71949 -0.0141,0.69197 0.0627,-0.0126 0.12396,0.085 0.13981,0.22267 0.0207,0.18005 -0.005,0.23229 -0.0966,0.19711 -0.0907,-0.0348 -0.15488,0.0868 -0.23519,0.44563 -0.0607,0.27143 -0.0814,0.54049 -0.0459,0.59793 0.0431,0.0697 0.0255,0.0803 -0.0526,0.032 -0.0873,-0.0539 -0.10429,-0.0233 -0.0668,0.12026 0.0277,0.10597 0.018,0.17263 -0.0216,0.14815 -0.0396,-0.0245 -0.0722,0.10604 -0.0724,0.29005 -9.7e-4,0.80454 -0.0389,1.16468 -0.16442,1.56024 -0.0737,0.23216 -0.1047,0.46939 -0.069,0.52719 0.0426,0.069 0.0263,0.0812 -0.0477,0.0355 -0.0838,-0.0518 -0.0963,-0.0181 -0.0489,0.13131 0.0372,0.11733 0.0292,0.17958 -0.0193,0.14962 -0.0457,-0.0282 -0.0808,0.0772 -0.0781,0.23435 0.003,0.15712 -0.0288,0.38111 -0.07,0.49775 -0.0523,0.14803 -0.0451,0.19362 0.0239,0.15098 0.12168,-0.0752 0.12311,-0.0367 0.01,0.26151 -0.049,0.12892 -0.12937,0.20952 -0.17857,0.17912 -0.12515,-0.0774 -0.11196,0.0756 0.0177,0.20525 0.19808,0.19808 0.40333,0.12173 0.46205,-0.17188 z"
         style="fill:none;stroke:#000000;stroke-width:0.23622046;stroke-linecap:square;stroke-miterlimit:4;stroke-dasharray:none;stroke-opacity:1;paint-order:markers stroke fill" />
      <path
         transform="scale(0.26458333)"
         inkscape:connector-curvature="0"
         id="path4766"
         d="m 275.59592,769.63307 c 0,-0.0173 0.19643,-0.44923 0.43652,-0.95982 0.78905,-1.67808 1.61813,-4.09483 2.18692,-6.37478 0.57384,-2.30018 1.05665,-5.02395 1.79319,-10.11622 l 0.40423,-2.7948 8.6e-4,-41.01636 8.6e-4,-41.01636 -0.26847,-1.27813 c -0.14767,-0.70297 -0.2894,-1.36887 -0.31497,-1.47978 l -0.0465,-0.20165 4.93493,0.0231 4.93492,0.0231 0.1256,0.71429 c 0.0691,0.39285 0.13662,0.6741 0.1501,0.625 0.0135,-0.0491 0.0711,-0.38058 0.12801,-0.73661 l 0.1035,-0.64732 h 4.94729 c 2.72101,0 4.94687,0.0301 4.94635,0.067 -5.3e-4,0.0368 -0.18131,0.98876 -0.40178,2.11539 l -0.40085,2.04842 v 40.28303 40.28304 l 0.40348,3.07033 c 0.6373,4.84953 1.03743,7.11756 1.75094,9.92479 0.60914,2.3966 1.62922,5.23809 2.49904,6.96118 l 0.25982,0.51472 h -14.287 c -7.85785,0 -14.287,-0.0142 -14.287,-0.0315 z m 27.00147,-1.1962 c -1.47768,-3.44093 -2.31757,-6.46133 -3.19657,-11.49554 -0.11275,-0.64571 -0.12566,-0.11218 -0.13445,5.55804 l -0.01,6.27232 h 1.74227 1.74227 z m -25.01201,-0.35336 c -0.0531,-0.13832 0.15937,-0.12338 0.26364,0.0185 0.0404,0.055 0.0661,0.0458 0.067,-0.024 9.4e-4,-0.0779 0.0754,-0.0947 0.2379,-0.0539 0.16647,0.0418 0.2178,0.029 0.1733,-0.043 -0.0384,-0.0621 -0.001,-0.1023 0.0938,-0.1023 0.11608,0 0.13092,-0.0261 0.0569,-0.10017 -0.0551,-0.0551 -0.0794,-0.16558 -0.0541,-0.24553 0.0355,-0.11197 0.0265,-0.11797 -0.0393,-0.0261 -0.13512,0.18872 -0.2061,0.16675 -0.35029,-0.10846 -0.11206,-0.21387 -0.11445,-0.26992 -0.0142,-0.33345 0.0965,-0.0611 0.0972,-0.0766 0.004,-0.0777 -0.0643,-8.9e-4 -0.0962,-0.0349 -0.0709,-0.0758 0.0253,-0.0409 -0.009,-0.0744 -0.0755,-0.0744 -0.0712,0 -0.10025,0.0553 -0.0702,0.1337 0.0363,0.0947 0.0164,0.11214 -0.0683,0.0598 -0.0874,-0.054 -0.10428,-0.0339 -0.0626,0.0746 0.0746,0.19438 -0.0189,0.43176 -0.14048,0.35662 -0.0596,-0.0368 -0.0738,-0.003 -0.0381,0.0898 0.07,0.1825 -0.0159,0.4336 -0.12531,0.366 -0.092,-0.0568 -0.0999,-0.0161 -0.0314,0.16217 0.0267,0.0695 0.10319,0.12635 0.17006,0.12635 0.0669,0 0.10038,-0.0552 0.0745,-0.1227 z m 1.76054,-0.51718 c 0,-0.0737 -0.0158,-0.13393 -0.0351,-0.13393 -0.0193,0 -0.0582,0.0603 -0.0865,0.13393 -0.0283,0.0737 -0.0125,0.13393 0.0351,0.13393 0.0476,0 0.0865,-0.0603 0.0865,-0.13393 z m -0.13242,-0.50202 c 0.0447,-0.32541 0.031,-0.47709 -0.0477,-0.52573 -0.0608,-0.0376 -0.0826,-0.11368 -0.0484,-0.16908 0.0342,-0.0554 0.0996,-0.0776 0.14537,-0.0494 0.11553,0.0714 0.10483,-0.64461 -0.0129,-0.86465 -0.0872,-0.16296 -0.079,-0.17035 0.0893,-0.0803 0.17816,0.0953 0.18533,0.0781 0.18533,-0.44493 0,-0.34002 0.0335,-0.52343 0.0893,-0.48895 0.0563,0.0348 0.0893,-0.1794 0.0893,-0.58036 0,-0.40095 0.0329,-0.61517 0.0893,-0.58035 0.0563,0.0348 0.0893,-0.17941 0.0893,-0.58036 0,-0.40096 0.0329,-0.61517 0.0893,-0.58036 0.057,0.0353 0.0893,-0.23893 0.0893,-0.75893 0,-0.52 0.0323,-0.79417 0.0893,-0.75892 0.057,0.0353 0.0893,-0.23893 0.0893,-0.75893 0,-0.52 0.0323,-0.79418 0.0893,-0.75893 0.0584,0.0361 0.0863,-0.51032 0.0806,-1.57956 l -0.009,-1.63473 -0.16326,0.9375 c -0.20005,1.14878 -0.20571,1.25584 -0.0649,1.22768 0.0668,-0.0134 0.12282,0.094 0.13953,0.26721 0.0212,0.22017 -0.002,0.27789 -0.0986,0.24096 -0.0973,-0.0373 -0.1523,0.11106 -0.23798,0.64223 -0.0613,0.37994 -0.13044,0.75365 -0.15366,0.83047 -0.031,0.10256 -0.0155,0.0982 0.0582,-0.0166 0.14398,-0.22392 0.27016,-0.19265 0.27016,0.067 0,0.12277 -0.0456,0.21317 -0.10125,0.20089 -0.0558,-0.0123 -0.15432,0.19816 -0.21943,0.46875 -0.14981,0.62252 -0.15179,0.71949 -0.0141,0.69197 0.0627,-0.0126 0.12396,0.085 0.13981,0.22267 0.0207,0.18005 -0.005,0.23229 -0.0966,0.19711 -0.0907,-0.0348 -0.15488,0.0868 -0.23519,0.44563 -0.0607,0.27143 -0.0814,0.54049 -0.0459,0.59793 0.0431,0.0697 0.0255,0.0803 -0.0526,0.032 -0.0873,-0.0539 -0.10429,-0.0233 -0.0668,0.12026 0.0277,0.10597 0.018,0.17263 -0.0216,0.14815 -0.0396,-0.0245 -0.0722,0.10604 -0.0724,0.29005 -9.7e-4,0.80454 -0.0389,1.16468 -0.16442,1.56024 -0.0737,0.23216 -0.1047,0.46939 -0.069,0.52719 0.0426,0.069 0.0263,0.0812 -0.0477,0.0355 -0.0838,-0.0518 -0.0963,-0.0181 -0.0489,0.13131 0.0372,0.11733 0.0292,0.17958 -0.0193,0.14962 -0.0457,-0.0282 -0.0808,0.0772 -0.0781,0.23435 0.003,0.15712 -0.0288,0.38111 -0.07,0.49775 -0.0523,0.14803 -0.0451,0.19362 0.0239,0.15098 0.12168,-0.0752 0.12311,-0.0367 0.01,0.26151 -0.049,0.12892 -0.12937,0.20952 -0.17857,0.17912 -0.12515,-0.0774 -0.11196,0.0756 0.0177,0.20525 0.24427,0.24427 0.40974,0.12219 0.47472,-0.35024 z"
         style="fill:none;stroke:#000000;stroke-width:0.23622046;stroke-linecap:square;stroke-miterlimit:4;stroke-dasharray:none;stroke-opacity:1;paint-order:markers stroke fill" />
      <path
         transform="scale(0.26458333)"
         inkscape:connector-curvature="0"
         id="path4768"
         d="m 275.59592,769.63307 c 0,-0.0173 0.19643,-0.44923 0.43652,-0.95982 0.78905,-1.67808 1.61813,-4.09483 2.18692,-6.37478 0.57384,-2.30018 1.05665,-5.02395 1.79319,-10.11622 l 0.40423,-2.7948 8.6e-4,-41.01636 8.6e-4,-41.01636 -0.26847,-1.27813 c -0.14767,-0.70297 -0.2894,-1.36887 -0.31497,-1.47978 l -0.0465,-0.20165 4.93493,0.0231 4.93492,0.0231 0.1256,0.71429 c 0.0691,0.39285 0.13662,0.6741 0.1501,0.625 0.0135,-0.0491 0.0711,-0.38058 0.12801,-0.73661 l 0.1035,-0.64732 h 4.94729 c 2.72101,0 4.94687,0.0301 4.94635,0.067 -5.3e-4,0.0368 -0.18131,0.98876 -0.40178,2.11539 l -0.40085,2.04842 v 40.28303 40.28304 l 0.40348,3.07033 c 0.6373,4.84953 1.03743,7.11756 1.75094,9.92479 0.60914,2.3966 1.62922,5.23809 2.49904,6.96118 l 0.25982,0.51472 h -14.287 c -7.85785,0 -14.287,-0.0142 -14.287,-0.0315 z m 27.00147,-1.1962 c -1.47768,-3.44093 -2.31757,-6.46133 -3.19657,-11.49554 -0.11275,-0.64571 -0.12566,-0.11218 -0.13445,5.55804 l -0.01,6.27232 h 1.74227 1.74227 z m -25.01201,-0.35336 c -0.0531,-0.13832 0.15937,-0.12338 0.26364,0.0185 0.0404,0.055 0.0661,0.0458 0.067,-0.024 9.4e-4,-0.0779 0.0754,-0.0947 0.2379,-0.0539 0.16647,0.0418 0.2178,0.029 0.1733,-0.043 -0.0384,-0.0621 -0.001,-0.1023 0.0938,-0.1023 0.11608,0 0.13092,-0.0261 0.0569,-0.10017 -0.0551,-0.0551 -0.0794,-0.16558 -0.0541,-0.24553 0.0355,-0.11197 0.0265,-0.11797 -0.0393,-0.0261 -0.13512,0.18872 -0.2061,0.16675 -0.35029,-0.10846 -0.11206,-0.21387 -0.11445,-0.26992 -0.0142,-0.33345 0.0965,-0.0611 0.0972,-0.0766 0.004,-0.0777 -0.0643,-8.9e-4 -0.0962,-0.0349 -0.0709,-0.0758 0.0253,-0.0409 -0.009,-0.0744 -0.0755,-0.0744 -0.0712,0 -0.10025,0.0553 -0.0702,0.1337 0.0363,0.0947 0.0164,0.11214 -0.0683,0.0598 -0.0874,-0.054 -0.10428,-0.0339 -0.0626,0.0746 0.0746,0.19438 -0.0189,0.43176 -0.14048,0.35662 -0.0596,-0.0368 -0.0738,-0.003 -0.0381,0.0898 0.07,0.1825 -0.0159,0.4336 -0.12531,0.366 -0.092,-0.0568 -0.0999,-0.0161 -0.0314,0.16217 0.0267,0.0695 0.10319,0.12635 0.17006,0.12635 0.0669,0 0.10038,-0.0552 0.0745,-0.1227 z m 1.76054,-0.51718 c 0,-0.0737 -0.0158,-0.13393 -0.0351,-0.13393 -0.0193,0 -0.0582,0.0603 -0.0865,0.13393 -0.0283,0.0737 -0.0125,0.13393 0.0351,0.13393 0.0476,0 0.0865,-0.0603 0.0865,-0.13393 z m -0.23348,-0.26471 c 0.1628,-0.24847 0.19479,-0.76207 0.0475,-0.76207 -0.0532,0 -0.0783,-0.0502 -0.0558,-0.11161 0.0225,-0.0614 0.0861,-0.10156 0.14137,-0.0893 0.13013,0.0289 0.13348,-0.64197 0.004,-0.88316 -0.0872,-0.16296 -0.079,-0.17035 0.0893,-0.0803 0.17816,0.0953 0.18533,0.0781 0.18533,-0.44493 0,-0.34002 0.0335,-0.52343 0.0893,-0.48895 0.0563,0.0348 0.0893,-0.1794 0.0893,-0.58036 0,-0.40095 0.0329,-0.61517 0.0893,-0.58035 0.0563,0.0348 0.0893,-0.17941 0.0893,-0.58036 0,-0.40096 0.0329,-0.61517 0.0893,-0.58036 0.057,0.0353 0.0893,-0.23893 0.0893,-0.75893 0,-0.52 0.0323,-0.79417 0.0893,-0.75892 0.057,0.0353 0.0893,-0.23893 0.0893,-0.75893 0,-0.52 0.0323,-0.79418 0.0893,-0.75893 0.0584,0.0361 0.0863,-0.51032 0.0806,-1.57956 l -0.009,-1.63473 -0.16326,0.9375 c -0.20005,1.14878 -0.20571,1.25584 -0.0649,1.22768 0.0668,-0.0134 0.12282,0.094 0.13953,0.26721 0.0212,0.22017 -0.002,0.27789 -0.0986,0.24096 -0.0973,-0.0373 -0.1523,0.11106 -0.23798,0.64223 -0.0613,0.37994 -0.13044,0.75365 -0.15366,0.83047 -0.031,0.10256 -0.0155,0.0982 0.0582,-0.0166 0.14398,-0.22392 0.27016,-0.19265 0.27016,0.067 0,0.12277 -0.0456,0.21317 -0.10125,0.20089 -0.0558,-0.0123 -0.15432,0.19816 -0.21943,0.46875 -0.14981,0.62252 -0.15179,0.71949 -0.0141,0.69197 0.0627,-0.0126 0.12396,0.085 0.13981,0.22267 0.0207,0.18005 -0.005,0.23229 -0.0966,0.19711 -0.0907,-0.0348 -0.15488,0.0868 -0.23519,0.44563 -0.0607,0.27143 -0.0814,0.54049 -0.0459,0.59793 0.0431,0.0697 0.0255,0.0803 -0.0526,0.032 -0.0873,-0.0539 -0.10429,-0.0233 -0.0668,0.12026 0.0277,0.10597 0.018,0.17263 -0.0216,0.14815 -0.0396,-0.0245 -0.0722,0.10604 -0.0724,0.29005 -9.7e-4,0.80454 -0.0389,1.16468 -0.16442,1.56024 -0.0737,0.23216 -0.1047,0.46939 -0.069,0.52719 0.0426,0.069 0.0263,0.0812 -0.0477,0.0355 -0.0838,-0.0518 -0.0963,-0.0181 -0.0489,0.13131 0.0372,0.11733 0.0292,0.17958 -0.0193,0.14962 -0.0457,-0.0282 -0.0808,0.0772 -0.0781,0.23435 0.003,0.15712 -0.0288,0.38111 -0.07,0.49775 -0.0523,0.14803 -0.0451,0.19362 0.0239,0.15098 0.12168,-0.0752 0.12311,-0.0367 0.01,0.26151 -0.049,0.12892 -0.12937,0.20952 -0.17857,0.17912 -0.12515,-0.0774 -0.11196,0.0756 0.0177,0.20525 0.15291,0.15291 0.21097,0.13536 0.37366,-0.11293 z"
         style="fill:none;stroke:#000000;stroke-width:0.23622046;stroke-linecap:square;stroke-miterlimit:4;stroke-dasharray:none;stroke-opacity:1;paint-order:markers stroke fill" />
      <path
         transform="scale(0.26458333)"
         inkscape:connector-curvature="0"
         id="path4770"
         d=""
         style="fill:none;stroke:#000000;stroke-width:0.23622046;stroke-linecap:square;stroke-miterlimit:4;stroke-dasharray:none;stroke-opacity:1;paint-order:markers stroke fill" />
      <path
         transform="scale(0.26458333)"
         inkscape:connector-curvature="0"
         id="path4772"
         d="m 277.15842,769.68849 c -0.78571,-0.0141 -1.4756,-0.0428 -1.53308,-0.0639 -0.0681,-0.025 0.0973,-0.49519 0.47432,-1.34895 0.6407,-1.45075 1.47876,-3.88455 1.90419,-5.52998 0.61063,-2.36172 1.05598,-4.79784 1.83181,-10.0204 l 0.49241,-3.31465 -0.002,-41.05608 -0.002,-41.05609 -0.31026,-1.42857 c -0.17065,-0.78571 -0.31032,-1.43861 -0.31037,-1.45089 -5e-5,-0.0123 2.26999,-0.0223 5.04455,-0.0223 h 5.04464 l 0.001,0.24553 c 0.002,0.44458 0.15147,0.52814 0.21987,0.12331 l 0.0623,-0.36884 h 5.0368 c 2.77024,0 5.03666,0.0301 5.0365,0.067 -1.8e-4,0.0368 -0.18062,0.99107 -0.40102,2.12054 l -0.40072,2.05357 -8e-4,40.27749 -8e-4,40.27749 0.3146,2.35644 c 0.37503,2.80894 0.62593,4.56745 0.80755,5.66001 0.71434,4.29692 1.82984,8.17188 3.25474,11.30614 0.2936,0.6458 0.53382,1.18866 0.53382,1.20635 0,0.0365 -24.90729,0.006 -27.09821,-0.0332 z m 25.40179,-1.03951 c 0,-0.0184 -0.21839,-0.57767 -0.48531,-1.24285 -0.94168,-2.34677 -1.68916,-4.9522 -2.32031,-8.08775 -0.17177,-0.85333 -0.33399,-1.5732 -0.36049,-1.5997 -0.0265,-0.0265 -0.0482,2.4295 -0.0482,5.45777 v 5.50595 h 1.60715 c 0.88392,0 1.60714,-0.015 1.60714,-0.0334 z m -23.43345,-1.71535 c 0.0417,-0.34517 0.041,-0.34617 -0.0599,-0.0816 -0.0562,0.14732 -0.13652,0.31173 -0.17861,0.36535 -0.094,0.11979 0.0143,0.24765 0.12011,0.14182 0.0419,-0.0419 0.0951,-0.23341 0.11837,-0.42559 z m 0.0956,-0.79066 c 0.0272,-0.0708 0.0344,-0.20137 0.0161,-0.29017 -0.0244,-0.11854 -0.0608,-0.0843 -0.13683,0.12871 -0.10089,0.28276 0.0148,0.43749 0.12074,0.16146 z m 0.20658,-1.18825 c -0.006,-0.21757 -0.015,-0.2252 -0.083,-0.067 -0.10479,0.24387 -0.10479,0.3125 0,0.3125 0.0491,0 0.0865,-0.11049 0.083,-0.24554 z m 0.19891,-1.31277 c 0.0364,-0.57958 -0.0772,-0.53223 -0.15927,0.0664 -0.0369,0.26929 -0.0241,0.4205 0.0355,0.4205 0.0512,0 0.10693,-0.2191 0.12375,-0.48688 z m 0.19074,-1.29419 c 0.0329,-0.25693 0.0219,-0.3515 -0.031,-0.26786 -0.0755,0.11932 -0.12501,0.78596 -0.0522,0.70221 0.0178,-0.0205 0.0552,-0.21592 0.0832,-0.43435 z m 0.14344,-1.32161 c -0.008,-0.29881 -0.0166,-0.31081 -0.0804,-0.1116 -0.10221,0.31915 -0.10221,0.44642 0,0.44642 0.0491,0 0.0853,-0.15067 0.0804,-0.33482 z m 0.18846,-1.47321 c 5.4e-4,-0.11049 0.0217,-0.36161 0.0469,-0.55804 0.0321,-0.24965 0.0224,-0.3034 -0.0325,-0.17857 -0.13296,0.3027 -0.2046,0.9375 -0.10581,0.9375 0.0497,0 0.0908,-0.0904 0.0913,-0.20089 z m 0.16869,-1.91964 c -0.008,-0.29882 -0.0166,-0.31082 -0.0804,-0.11161 -0.10221,0.31915 -0.10221,0.44643 0,0.44643 0.0491,0 0.0853,-0.15067 0.0804,-0.33482 z m 18.99934,-1.24831 c -0.0226,-0.0869 -0.0426,-0.0374 -0.0445,0.10991 -0.002,0.14732 0.0167,0.2184 0.0412,0.15795 0.0245,-0.0604 0.026,-0.18098 0.003,-0.26786 z"
         style="fill:none;stroke:#000000;stroke-width:0.23622046;stroke-linecap:square;stroke-miterlimit:4;stroke-dasharray:none;stroke-opacity:1;paint-order:markers stroke fill" />
      <path
         transform="scale(0.26458333)"
         inkscape:connector-curvature="0"
         id="path4774"
         d="m 299.52449,764.25532 c 0,-3.18947 0.0259,-4.23989 0.10384,-4.2139 0.0571,0.019 0.23409,0.59493 0.3933,1.27976 0.52207,2.2457 1.18954,4.38978 1.99355,6.40373 0.15244,0.38185 0.27717,0.71333 0.27717,0.7366 0,0.0233 -0.62277,0.0423 -1.38393,0.0423 h -1.38393 z"
         style="fill:none;stroke:#000000;stroke-width:0.23622046;stroke-linecap:square;stroke-miterlimit:4;stroke-dasharray:none;stroke-opacity:1;paint-order:markers stroke fill" />
      <path
         transform="scale(0.26458333)"
         inkscape:connector-curvature="0"
         id="path4776"
         d="m 299.70307,764.92496 c 0,-2.5632 0.0258,-3.39169 0.10482,-3.36535 0.0577,0.0192 0.23817,0.55188 0.40115,1.18371 0.34868,1.35168 0.85187,2.92904 1.41255,4.42787 0.2216,0.5924 0.4029,1.09441 0.4029,1.11558 0,0.0212 -0.52232,0.0385 -1.16071,0.0385 h -1.16071 z"
         style="fill:none;stroke:#000000;stroke-width:0.23622046;stroke-linecap:square;stroke-miterlimit:4;stroke-dasharray:none;stroke-opacity:1;paint-order:markers stroke fill" />
      <path
         transform="scale(0.26458333)"
         inkscape:connector-curvature="0"
         id="path4778"
         d="m 299.88164,765.50532 c 0,-1.90093 0.0279,-2.63208 0.0994,-2.60823 0.0547,0.0182 0.23453,0.49874 0.39965,1.06781 0.16512,0.56906 0.52585,1.67245 0.80161,2.45197 0.27576,0.77953 0.52247,1.48763 0.54826,1.57357 0.0426,0.14194 -0.0399,0.15625 -0.90104,0.15625 h -0.94791 z"
         style="fill:none;stroke:#000000;stroke-width:0.23622046;stroke-linecap:square;stroke-miterlimit:4;stroke-dasharray:none;stroke-opacity:1;paint-order:markers stroke fill" />
      <path
         transform="scale(0.26458333)"
         inkscape:connector-curvature="0"
         id="path4780"
         d="m 300.06021,766.04103 c 0,-1.32643 0.0297,-1.91718 0.0953,-1.89531 0.0792,0.0264 1.327,3.54524 1.33174,3.75543 8.3e-4,0.0368 -0.31992,0.067 -0.71278,0.067 h -0.71428 z"
         style="fill:none;stroke:#000000;stroke-width:0.23622046;stroke-linecap:square;stroke-miterlimit:4;stroke-dasharray:none;stroke-opacity:1;paint-order:markers stroke fill" />
      <path
         transform="scale(0.26458333)"
         inkscape:connector-curvature="0"
         id="path4782"
         d="m 300.23878,766.5321 c 0,-0.94336 0.027,-1.24845 0.10792,-1.22146 0.0594,0.0198 0.2995,0.58563 0.53364,1.25744 l 0.42573,1.22147 h -0.53365 -0.53364 z"
         style="fill:none;stroke:#000000;stroke-width:0.23622046;stroke-linecap:square;stroke-miterlimit:4;stroke-dasharray:none;stroke-opacity:1;paint-order:markers stroke fill" />
      <path
         transform="scale(0.26458333)"
         inkscape:connector-curvature="0"
         id="path4784"
         d="m 300.41735,766.97853 c 0,-0.78105 0.13758,-0.79106 0.4188,-0.0305 0.10757,0.29094 0.19797,0.55912 0.20089,0.59595 0.003,0.0368 -0.13531,0.067 -0.30719,0.067 h -0.3125 z"
         style="fill:none;stroke:#000000;stroke-width:0.23622046;stroke-linecap:square;stroke-miterlimit:4;stroke-dasharray:none;stroke-opacity:1;paint-order:markers stroke fill" />
      <path
         transform="scale(0.26458333)"
         inkscape:connector-curvature="0"
         id="path4786"
         d=""
         style="fill:none;stroke:#000000;stroke-width:0.23622046;stroke-linecap:square;stroke-miterlimit:4;stroke-dasharray:none;stroke-opacity:1;paint-order:markers stroke fill" />
      <path
         transform="scale(0.26458333)"
         inkscape:connector-curvature="0"
         id="path4788"
         d=""
         style="fill:none;stroke:#000000;stroke-width:0.23622046;stroke-linecap:square;stroke-miterlimit:4;stroke-dasharray:none;stroke-opacity:1;paint-order:markers stroke fill" />
      <path
         transform="scale(0.26458333)"
         inkscape:connector-curvature="0"
         id="path4790"
         d="m 299.52449,759.79847 c 0,-0.0737 0.0402,-0.13392 0.0893,-0.13392 0.0491,0 0.0893,0.0603 0.0893,0.13392 0,0.0737 -0.0402,0.13393 -0.0893,0.13393 -0.0491,0 -0.0893,-0.0603 -0.0893,-0.13393 z"
         style="fill:none;stroke:#000000;stroke-width:0.23622046;stroke-linecap:square;stroke-miterlimit:4;stroke-dasharray:none;stroke-opacity:1;paint-order:markers stroke fill" />
      <path
         transform="scale(0.26458333)"
         inkscape:connector-curvature="0"
         id="path4792"
         d="m 280.71491,769.75562 c -2.80732,-0.0255 -5.13012,-0.0724 -5.16176,-0.10403 -0.0317,-0.0317 0.20211,-0.69463 0.51946,-1.47321 1.81704,-4.45792 2.44824,-7.12691 3.76159,-15.90559 l 0.40458,-2.70425 v -41.18099 -41.18099 l -0.26639,-1.20405 c -0.14651,-0.66222 -0.26705,-1.29444 -0.26785,-1.40493 l -0.001,-0.20089 h 5.08273 c 4.76563,0 5.08529,0.01 5.12358,0.15625 0.0389,0.14881 0.0413,0.14881 0.0512,0 0.01,-0.14686 0.31592,-0.15625 5.09437,-0.15625 2.79621,0 5.10016,0.0301 5.11989,0.067 0.0197,0.0368 -0.13615,0.95089 -0.34639,2.03125 l -0.38227,1.96429 -0.005,40.4459 -0.005,40.44589 0.44768,3.28672 c 0.24623,1.80769 0.56916,3.99767 0.71763,4.8666 0.7083,4.14531 1.73664,7.68789 3.20478,11.04029 l 0.51855,1.18407 -0.80625,0.0572 c -0.87809,0.0623 -14.63051,0.0441 -22.80269,-0.0303 z m 21.6926,-1.34107 c -0.0257,-0.0982 -0.0574,-0.17858 -0.0705,-0.17858 -0.0131,0 -0.0448,0.0804 -0.0705,0.17858 -0.0292,0.11159 -0.003,0.17857 0.0705,0.17857 0.0733,0 0.0997,-0.067 0.0705,-0.17857 z m -0.20444,-0.082 c 0,-0.0451 0.0269,-0.15212 0.0598,-0.23786 0.0381,-0.0992 0.0253,-0.13451 -0.0353,-0.0971 -0.0985,0.0608 -0.23371,-0.17557 -0.16451,-0.28754 0.0215,-0.0349 -0.0587,-0.0634 -0.17828,-0.0634 -0.1196,0 -0.21745,0.0461 -0.21745,0.10243 0,0.0563 -0.0904,0.14602 -0.20089,0.19931 l -0.20089,0.0969 0.20616,0.006 c 0.13119,0.004 0.18318,0.0432 0.14298,0.10828 -0.0438,0.0708 0.0111,0.088 0.17848,0.056 0.18017,-0.0344 0.2297,-0.015 0.19465,0.0763 -0.0267,0.0696 0.01,0.12253 0.0841,0.12253 0.0721,0 0.13113,-0.0369 0.13113,-0.082 z m -1.04656,-0.81468 c -0.0497,-0.19004 0.13349,-0.21839 0.26394,-0.0408 0.0416,0.0566 0.0661,0.0513 0.067,-0.0144 7.2e-4,-0.0571 0.0717,-0.0929 0.15762,-0.0796 0.0859,0.0133 0.18577,-0.0204 0.22185,-0.0749 0.10056,-0.15171 0.0805,-0.25096 -0.0361,-0.17887 -0.0709,0.0438 -0.0856,0.0153 -0.0457,-0.0887 0.0323,-0.0843 0.0272,-0.13369 -0.0114,-0.10983 -0.0386,0.0239 -0.12266,0.011 -0.18676,-0.0286 -0.0897,-0.0554 -0.0934,-0.11529 -0.016,-0.25995 0.0861,-0.16097 0.079,-0.17963 -0.0501,-0.13012 -0.091,0.0349 -0.1285,0.022 -0.0947,-0.0327 0.0333,-0.0538 -0.0422,-0.084 -0.18625,-0.0746 -0.33408,0.0219 -0.48428,-0.0444 -0.42868,-0.18929 0.0258,-0.0673 0.009,-0.12241 -0.0367,-0.12241 -0.046,0 -0.0606,-0.0603 -0.0323,-0.13393 0.0283,-0.0737 0.008,-0.13393 -0.0452,-0.13393 -0.0683,0 -0.0695,-0.0713 -0.004,-0.24368 0.0617,-0.16236 0.0627,-0.25367 0.003,-0.27362 -0.0494,-0.0165 -0.0677,-0.0876 -0.0407,-0.15811 0.0271,-0.0705 0.002,-0.12816 -0.0549,-0.12816 -0.0573,0 -0.0765,-0.0447 -0.0427,-0.0993 0.0337,-0.0546 0.0204,-0.12491 -0.0297,-0.15625 -0.0594,-0.0372 -0.0366,-0.23244 0.0657,-0.56226 l 0.15669,-0.50527 -0.21819,0.0396 c -0.13562,0.0246 -0.19659,0.005 -0.16112,-0.0528 0.0314,-0.0508 0.0112,-0.0923 -0.0449,-0.0923 -0.0561,0 -0.0836,-0.0502 -0.0611,-0.11161 0.0225,-0.0614 0.0818,-0.103 0.13179,-0.0925 0.05,0.0105 0.11072,-0.0568 0.13498,-0.14957 0.0326,-0.12463 0.008,-0.15482 -0.0944,-0.11556 -0.0911,0.0349 -0.11638,0.0174 -0.0739,-0.0513 0.0355,-0.0574 0.0177,-0.10445 -0.0396,-0.10445 -0.0574,0 -0.0803,-0.0622 -0.0509,-0.13857 0.0296,-0.0772 0.0152,-0.1151 -0.0325,-0.0856 -0.11367,0.0702 -0.21188,-0.33878 -0.13757,-0.57293 0.0323,-0.10176 0.0259,-0.18502 -0.0143,-0.18502 -0.0401,0 -0.0747,-0.11049 -0.0768,-0.24553 -0.002,-0.13505 -0.0365,-0.38114 -0.0765,-0.54689 -0.0515,-0.21325 -0.0438,-0.28349 0.0261,-0.24026 0.0544,0.0336 0.0988,0.0185 0.0988,-0.0335 0,-0.052 -0.0429,-0.0946 -0.0953,-0.0946 -0.0547,0 -0.0711,-0.0761 -0.0386,-0.17857 0.0338,-0.10643 0.016,-0.17857 -0.0439,-0.17857 -0.0553,0 -0.075,-0.0414 -0.0437,-0.0919 0.0606,-0.0981 -0.20236,-1.4694 -0.32487,-1.69377 -0.0412,-0.0755 -0.0743,0.36466 -0.0758,1.00973 -0.002,0.74037 0.0288,1.12421 0.0866,1.08849 0.0567,-0.0351 0.0893,0.20916 0.0893,0.66964 0,0.46048 0.0326,0.7047 0.0893,0.66964 0.0565,-0.0349 0.0893,0.19429 0.0893,0.625 0,0.43072 0.0327,0.65995 0.0893,0.625 0.0563,-0.0348 0.0893,0.1794 0.0893,0.58036 0,0.40095 0.033,0.61517 0.0893,0.58036 0.0557,-0.0345 0.0893,0.14694 0.0893,0.483 0,0.39396 0.0299,0.52665 0.11161,0.49517 0.0836,-0.0322 0.10402,0.0917 0.0813,0.49411 -0.0237,0.42081 -0.004,0.52716 0.0893,0.49107 0.0938,-0.0361 0.11291,0.0719 0.0887,0.50222 l -0.0308,0.54827 0.28019,-0.0411 c 0.20803,-0.0305 0.26843,-0.0105 0.23452,0.0779 -0.0251,0.0655 0.01,0.11903 0.0771,0.11903 0.0797,0 0.10602,-0.064 0.0751,-0.18238 z"
         style="fill:none;stroke:#000000;stroke-width:0.23622046;stroke-linecap:square;stroke-miterlimit:4;stroke-dasharray:none;stroke-opacity:1;paint-order:markers stroke fill" />
      <path
         transform="scale(0.26458333)"
         inkscape:connector-curvature="0"
         id="path4794"
         d=""
         style="fill:none;stroke:#000000;stroke-width:0.23622046;stroke-linecap:square;stroke-miterlimit:4;stroke-dasharray:none;stroke-opacity:1;paint-order:markers stroke fill" />
      <path
         transform="scale(0.26458333)"
         inkscape:connector-curvature="0"
         id="path4796"
         d="m 284.03342,769.83831 c -9.07536,-0.0718 -8.43218,-0.056 -8.49065,-0.2084 -0.0262,-0.0681 0.26112,-0.92195 0.63838,-1.89732 1.7172,-4.43956 2.22894,-6.63022 3.51934,-15.06568 l 0.449,-2.93513 v -41.31473 -41.31474 l -0.21342,-0.97335 c -0.11738,-0.53534 -0.24142,-1.14393 -0.27564,-1.35243 l -0.0622,-0.37908 h 10.33037 10.33036 l -0.0624,0.42373 c -0.0343,0.23305 -0.19923,1.12685 -0.36646,1.98622 l -0.30404,1.5625 -8e-4,40.6006 -8e-4,40.60059 0.53536,3.77441 c 0.5935,4.18419 0.9913,6.38936 1.5265,8.4619 0.65189,2.52445 1.30182,4.43767 2.25883,6.64943 0.27541,0.63649 0.50074,1.20238 0.50074,1.25753 0,0.22112 -4.53445,0.2488 -20.3125,0.12395 z m 17.92837,-1.81067 c 0.0251,-0.0655 -0.004,-0.11905 -0.0649,-0.11905 -0.0608,0 -0.11053,0.0536 -0.11053,0.11905 0,0.0655 0.0292,0.11905 0.0648,0.11905 0.0357,0 0.0854,-0.0536 0.11054,-0.11905 z m -1.06171,-0.71871 c -0.0346,-0.0901 0.0221,-0.11756 0.20988,-0.10159 0.23459,0.02 0.25672,-0.003 0.25108,-0.25824 -0.006,-0.26904 -0.0212,-0.28014 -0.38565,-0.28036 h -0.37947 v 0.38195 c 0,0.32039 0.0283,0.38194 0.17577,0.38194 0.11295,0 0.15884,-0.0441 0.12839,-0.12347 z m -0.29616,-1.27102 -0.17683,-0.43586 -0.005,0.37946 c -0.004,0.27994 0.0303,0.37946 0.12906,0.37946 0.0737,0 0.13393,0.0469 0.13393,0.10417 0,0.0573 0.0215,0.0827 0.0478,0.0564 0.0263,-0.0263 -0.0318,-0.24391 -0.12906,-0.48363 z m -0.14723,-0.98847 c -0.21583,-0.58622 -0.3031,-0.65965 -0.24193,-0.20356 0.044,0.3281 0.27047,0.73234 0.3683,0.65742 0.0175,-0.0134 -0.0394,-0.21762 -0.12637,-0.45386 z m -0.17693,-1.21039 c -0.20963,-0.6461 -0.32374,-0.73675 -0.24997,-0.19855 0.0333,0.24307 0.11405,0.49544 0.17942,0.5608 0.0654,0.0654 0.12203,0.16621 0.1259,0.22408 0.005,0.0744 0.0202,0.0727 0.052,-0.006 0.0247,-0.0612 -0.0236,-0.32233 -0.1073,-0.58035 z m -0.13702,-1.00263 c -0.0945,-0.26887 -0.17182,-0.56783 -0.17182,-0.66437 0,-0.0965 -0.042,-0.20151 -0.0934,-0.23326 -0.0634,-0.0392 -0.0735,0.0955 -0.0315,0.41884 0.034,0.2621 0.0987,0.49082 0.14381,0.50825 0.0451,0.0174 0.11852,0.12792 0.16323,0.24553 0.16469,0.43315 0.15586,0.1978 -0.0103,-0.27499 z m -0.29156,-1.75441 c -0.0249,-0.25165 -0.0938,-0.50277 -0.153,-0.55804 -0.0833,-0.0778 -0.0952,-0.0198 -0.0524,0.25665 0.0304,0.19643 0.0557,0.44754 0.0563,0.55803 5.4e-4,0.11049 0.0445,0.2009 0.0977,0.2009 0.0628,0 0.0808,-0.16069 0.0514,-0.45754 z m -0.20511,-1.64068 c -0.0283,-0.0737 -0.0672,-0.13393 -0.0865,-0.13393 -0.0193,0 -0.0351,0.0603 -0.0351,0.13393 0,0.0737 0.0389,0.13393 0.0865,0.13393 0.0476,0 0.0634,-0.0603 0.0351,-0.13393 z"
         style="fill:none;stroke:#000000;stroke-width:0.23622046;stroke-linecap:square;stroke-miterlimit:4;stroke-dasharray:none;stroke-opacity:1;paint-order:markers stroke fill" />
      <path
         transform="scale(0.26458333)"
         inkscape:connector-curvature="0"
         id="path4798"
         d="m 284.7982,769.9303 c -4.88295,-0.0418 -8.97112,-0.0994 -9.08482,-0.12799 -0.13062,-0.0328 -0.20674,-0.11817 -0.20674,-0.23191 0,-0.099 0.22504,-0.79133 0.5001,-1.53848 1.9421,-5.27539 2.301,-6.79455 3.60434,-15.25658 l 0.44913,-2.91599 v -41.42258 -41.42258 l -0.27055,-1.2763 c -0.14879,-0.70197 -0.25594,-1.29091 -0.23809,-1.30875 0.0649,-0.0649 20.77649,-0.0305 20.77643,0.0345 -4e-5,0.0368 -0.16025,0.91072 -0.35603,1.94197 l -0.35597,1.875 -10e-4,40.72214 -0.001,40.72215 0.39762,2.76777 c 0.8566,5.9627 1.15749,7.57407 1.93581,10.36702 0.48197,1.72951 1.1075,3.53701 1.79881,5.1977 0.79369,1.90663 0.76697,1.75106 0.31192,1.81647 -0.72344,0.10397 -10.4039,0.13233 -19.25974,0.0564 z m 16.03971,-2.76575 c -0.0257,-0.0982 -0.0103,-0.17858 0.0342,-0.17858 0.0445,0 0.0809,-0.0335 0.0809,-0.0744 0,-0.0409 -0.0603,-0.0744 -0.13393,-0.0744 -0.0875,0 -0.13393,0.0876 -0.13393,0.25298 0,0.13914 0.0449,0.25298 0.0997,0.25298 0.0557,0 0.0791,-0.0787 0.053,-0.17857 z"
         style="fill:none;stroke:#000000;stroke-width:0.23622046;stroke-linecap:square;stroke-miterlimit:4;stroke-dasharray:none;stroke-opacity:1;paint-order:markers stroke fill" />
    </g>
  </g>
</svg>
